# xmcd
#
# Track frame offsets: 
#        150
#        10402
#        21850
#        37897
#        48150
#        58655
#        69757
#        79190
#        92492
#        101647
#        112295
#
# Disc length: 1658 seconds
#
# Revision: 0
# Processed by: cddbd v1.5.2PL0 Copyright (c) Steve Scherf et al.
# Submitted via: ExactAudioCopy v0.99pb3
#
DISCID=8406780b
DTITLE=Willie Nelson - Texas in My Soul
DYEAR=1968
DGENRE=Country
TTITLE0=Dallas
TTITLE1=San Antonio
TTITLE2=Streets of Laredo
TTITLE3=Who Put All My Ex's in Texas
TTITLE4=Hill Country Theme
TTITLE5=Waltz Across Texas
TTITLE6=Travis Letter
TTITLE7=Remember the Alamo
TTITLE8=Texas in My Soul
TTITLE9=There's a Little Bit of Everything in Texas
TTITLE10=Beautiful Texas
EXTD=
EXTT0=
EXTT1=
EXTT2=
EXTT3=
EXTT4=
EXTT5=
EXTT6=
EXTT7=
EXTT8=
EXTT9=
EXTT10=
PLAYORDER=
